<svg width="121" height="36" viewBox="0 0 121 36" fill="none" xmlns="http://www.w3.org/2000/svg">
<g filter="url(#filter0_d_277_479)">
<path d="M29.2812 8.4375L33.5117 20.6133L37.7305 8.4375H40.8359L34.7539 25.5H32.2461L26.1758 8.4375H29.2812ZM27.582 8.4375L28.1562 21.082V25.5H24.4648V8.4375H27.582ZM42.5469 8.4375V25.5H38.8555V21.082L39.418 8.4375H42.5469ZM57.0312 25.5H48.0195V22.5352H57.0312V25.5ZM49.2031 25.5H45.5117V8.4375H49.2031V25.5ZM55.8594 18.1641H48.0195V15.293H55.8594V18.1641ZM57.0195 11.4141H48.0195V8.4375H57.0195V11.4141ZM60.6055 25.5L60.6289 22.5352H64.2969C65.1953 22.5352 65.9492 22.3359 66.5586 21.9375C67.1758 21.5391 67.6406 20.9531 67.9531 20.1797C68.2656 19.4062 68.4219 18.457 68.4219 17.332V16.582C68.4219 15.4492 68.2656 14.5 67.9531 13.7344C67.6406 12.9688 67.1797 12.3906 66.5703 12C65.9609 11.6094 65.2109 11.4141 64.3203 11.4141H60.5352V8.4375H64.3203C65.8594 8.4375 67.2148 8.78125 68.3867 9.46875C69.5664 10.1562 70.4883 11.1133 71.1523 12.3398C71.8164 13.5586 72.1484 14.9805 72.1484 16.6055V17.332C72.1484 18.957 71.8164 20.3828 71.1523 21.6094C70.4883 22.8359 69.5664 23.793 68.3867 24.4805C67.2148 25.1602 65.8516 25.5 64.2969 25.5H60.6055ZM62.7031 25.5H59.0117V8.4375H62.7031V25.5ZM78.5117 25.5H74.832V8.4375H78.5117V25.5ZM84.1953 25.5H80.2695L86.6094 8.4375H89.0938L88.7422 11.6719L84.1953 25.5ZM87.9102 11.6719L87.5234 8.4375H90.0195L96.3945 25.5H92.4688L87.9102 11.6719ZM92.3516 22.1016H83.3047V19.125H92.3516V22.1016Z" fill="#081925"/>
<path d="M29.2812 8.4375L40.6165 4.49906L37.8156 -3.5625H29.2812V8.4375ZM33.5117 20.6133L22.1764 24.5517L33.5274 57.2212L44.8504 24.542L33.5117 20.6133ZM37.7305 8.4375V-3.5625H29.1884L26.3918 4.5088L37.7305 8.4375ZM40.8359 8.4375L52.1393 12.4667L57.853 -3.5625H40.8359V8.4375ZM34.7539 25.5V37.5H43.216L46.0573 29.5292L34.7539 25.5ZM32.2461 25.5L20.9403 29.5223L23.7785 37.5H32.2461V25.5ZM26.1758 8.4375V-3.5625H9.16974L14.87 12.4598L26.1758 8.4375ZM27.582 8.4375L39.5697 7.89311L39.0494 -3.5625H27.582V8.4375ZM28.1562 21.082H40.1562V20.8097L40.1439 20.5376L28.1562 21.082ZM28.1562 25.5V37.5H40.1562V25.5H28.1562ZM24.4648 25.5H12.4648V37.5H24.4648V25.5ZM24.4648 8.4375V-3.5625H12.4648V8.4375H24.4648ZM42.5469 8.4375H54.5469V-3.5625H42.5469V8.4375ZM42.5469 25.5V37.5H54.5469V25.5H42.5469ZM38.8555 25.5H26.8555V37.5H38.8555V25.5ZM38.8555 21.082L26.8673 20.5487L26.8555 20.8152V21.082H38.8555ZM39.418 8.4375V-3.5625H27.9399L27.4298 7.9042L39.418 8.4375ZM17.946 12.3759L22.1764 24.5517L44.847 16.6748L40.6165 4.49906L17.946 12.3759ZM44.8504 24.542L49.0691 12.3662L26.3918 4.5088L22.1731 16.6846L44.8504 24.542ZM37.7305 20.4375H40.8359V-3.5625H37.7305V20.4375ZM29.5326 4.40835L23.4505 21.4708L46.0573 29.5292L52.1393 12.4667L29.5326 4.40835ZM34.7539 13.5H32.2461V37.5H34.7539V13.5ZM43.5519 21.4777L37.4816 4.41524L14.87 12.4598L20.9403 29.5223L43.5519 21.4777ZM26.1758 20.4375H29.2812V-3.5625H26.1758V20.4375ZM15.5944 8.98189L16.1686 21.6264L40.1439 20.5376L39.5697 7.89311L15.5944 8.98189ZM16.1562 21.082V25.5H40.1562V21.082H16.1562ZM28.1562 13.5H24.4648V37.5H28.1562V13.5ZM36.4648 25.5V8.4375H12.4648V25.5H36.4648ZM24.4648 20.4375H27.582V-3.5625H24.4648V20.4375ZM30.5469 8.4375V25.5H54.5469V8.4375H30.5469ZM42.5469 13.5H38.8555V37.5H42.5469V13.5ZM50.8555 25.5V21.082H26.8555V25.5H50.8555ZM50.8436 21.6153L51.4061 8.9708L27.4298 7.9042L26.8673 20.5487L50.8436 21.6153ZM39.418 20.4375H42.5469V-3.5625H39.418V20.4375ZM57.0312 25.5V37.5H69.0312V25.5H57.0312ZM48.0195 25.5H36.0195V37.5H48.0195V25.5ZM48.0195 22.5352V10.5352H36.0195V22.5352H48.0195ZM57.0312 22.5352H69.0312V10.5352H57.0312V22.5352ZM49.2031 25.5V37.5H61.2031V25.5H49.2031ZM45.5117 25.5H33.5117V37.5H45.5117V25.5ZM45.5117 8.4375V-3.5625H33.5117V8.4375H45.5117ZM49.2031 8.4375H61.2031V-3.5625H49.2031V8.4375ZM55.8594 18.1641V30.1641H67.8594V18.1641H55.8594ZM48.0195 18.1641H36.0195V30.1641H48.0195V18.1641ZM48.0195 15.293V3.29297H36.0195V15.293H48.0195ZM55.8594 15.293H67.8594V3.29297H55.8594V15.293ZM57.0195 11.4141V23.4141H69.0195V11.4141H57.0195ZM48.0195 11.4141H36.0195V23.4141H48.0195V11.4141ZM48.0195 8.4375V-3.5625H36.0195V8.4375H48.0195ZM57.0195 8.4375H69.0195V-3.5625H57.0195V8.4375ZM57.0312 13.5H48.0195V37.5H57.0312V13.5ZM60.0195 25.5V22.5352H36.0195V25.5H60.0195ZM48.0195 34.5352H57.0312V10.5352H48.0195V34.5352ZM45.0312 22.5352V25.5H69.0312V22.5352H45.0312ZM49.2031 13.5H45.5117V37.5H49.2031V13.5ZM57.5117 25.5V8.4375H33.5117V25.5H57.5117ZM45.5117 20.4375H49.2031V-3.5625H45.5117V20.4375ZM37.2031 8.4375V25.5H61.2031V8.4375H37.2031ZM55.8594 6.16406H48.0195V30.1641H55.8594V6.16406ZM60.0195 18.1641V15.293H36.0195V18.1641H60.0195ZM48.0195 27.293H55.8594V3.29297H48.0195V27.293ZM43.8594 15.293V18.1641H67.8594V15.293H43.8594ZM57.0195 -0.585938H48.0195V23.4141H57.0195V-0.585938ZM60.0195 11.4141V8.4375H36.0195V11.4141H60.0195ZM48.0195 20.4375H57.0195V-3.5625H48.0195V20.4375ZM45.0195 8.4375V11.4141H69.0195V8.4375H45.0195ZM60.6055 25.5L48.6058 25.4051L48.5102 37.5H60.6055V25.5ZM60.6289 22.5352V10.5352H48.7234L48.6293 22.4403L60.6289 22.5352ZM66.5586 21.9375L60.0502 11.8558L60.0208 11.8748L59.9916 11.8939L66.5586 21.9375ZM60.5352 11.4141H48.5352V23.4141H60.5352V11.4141ZM60.5352 8.4375V-3.5625H48.5352V8.4375H60.5352ZM68.3867 9.46875L62.3145 19.819L62.3295 19.8278L62.3445 19.8366L68.3867 9.46875ZM71.1523 12.3398L60.5997 18.0531L60.6073 18.0672L60.615 18.0813L71.1523 12.3398ZM68.3867 24.4805L74.4073 34.8608L74.4181 34.8546L74.4289 34.8483L68.3867 24.4805ZM62.7031 25.5V37.5H74.7031V25.5H62.7031ZM59.0117 25.5H47.0117V37.5H59.0117V25.5ZM59.0117 8.4375V-3.5625H47.0117V8.4375H59.0117ZM62.7031 8.4375H74.7031V-3.5625H62.7031V8.4375ZM72.6051 25.5949L72.6285 22.63L48.6293 22.4403L48.6058 25.4051L72.6051 25.5949ZM60.6289 34.5352H64.2969V10.5352H60.6289V34.5352ZM64.2969 34.5352C66.98 34.5352 70.1509 33.9261 73.1256 31.9811L59.9916 11.8939C61.7475 10.7458 63.4106 10.5352 64.2969 10.5352V34.5352ZM73.067 32.0192C76.0368 30.102 77.9705 27.4194 79.0793 24.6751L56.827 15.6843C57.3108 14.4869 58.3147 12.9762 60.0502 11.8558L73.067 32.0192ZM79.0793 24.6751C80.132 22.0696 80.4219 19.4927 80.4219 17.332H56.4219C56.4219 17.4214 56.3993 16.7429 56.827 15.6843L79.0793 24.6751ZM80.4219 17.332V16.582H56.4219V17.332H80.4219ZM80.4219 16.582C80.4219 14.4323 80.1373 11.8309 79.0633 9.19961L56.843 18.2691C56.6099 17.6981 56.5088 17.2413 56.464 16.9696C56.4194 16.6986 56.4219 16.5572 56.4219 16.582H80.4219ZM79.0633 9.19961C77.9544 6.4829 76.0246 3.8066 73.0463 1.89745L60.0943 22.1026C58.3348 20.9747 57.3268 19.4546 56.843 18.2691L79.0633 9.19961ZM73.0463 1.89745C70.1014 0.00971606 66.9761 -0.585938 64.3203 -0.585938V23.4141C63.4457 23.4141 61.8204 23.209 60.0943 22.1026L73.0463 1.89745ZM64.3203 -0.585938H60.5352V23.4141H64.3203V-0.585938ZM72.5352 11.4141V8.4375H48.5352V11.4141H72.5352ZM60.5352 20.4375H64.3203V-3.5625H60.5352V20.4375ZM64.3203 20.4375C64.1938 20.4375 63.919 20.4229 63.5414 20.3271C63.1554 20.2292 62.7321 20.064 62.3145 19.819L74.4589 -0.881549C71.2114 -2.78674 67.705 -3.5625 64.3203 -3.5625V20.4375ZM62.3445 19.8366C62.004 19.6381 61.6488 19.3682 61.3204 19.0272C60.9931 18.6875 60.7579 18.3453 60.5997 18.0531L81.705 6.62661C80.0166 3.50803 77.5532 0.921706 74.4289 -0.899086L62.3445 19.8366ZM60.615 18.0813C60.1672 17.2594 60.1484 16.6425 60.1484 16.6055H84.1484C84.1484 13.3184 83.4656 9.85774 81.6897 6.59835L60.615 18.0813ZM60.1484 16.6055V17.332H84.1484V16.6055H60.1484ZM60.1484 17.332C60.1484 17.2928 60.1679 16.6936 60.5997 15.8961L81.705 27.3226C83.4649 24.072 84.1484 20.6213 84.1484 17.332H60.1484ZM60.5997 15.8961C60.7579 15.6039 60.9931 15.2617 61.3204 14.922C61.6488 14.581 62.004 14.3111 62.3445 14.1126L74.4289 34.8483C77.5532 33.0275 80.0166 30.4412 81.705 27.3226L60.5997 15.8961ZM62.3661 14.1001C62.7908 13.8538 63.2117 13.6939 63.5828 13.6014C63.9452 13.5111 64.1984 13.5 64.2969 13.5V37.5C67.6493 37.5 71.1505 36.7498 74.4073 34.8608L62.3661 14.1001ZM64.2969 13.5H60.6055V37.5H64.2969V13.5ZM62.7031 13.5H59.0117V37.5H62.7031V13.5ZM71.0117 25.5V8.4375H47.0117V25.5H71.0117ZM59.0117 20.4375H62.7031V-3.5625H59.0117V20.4375ZM50.7031 8.4375V25.5H74.7031V8.4375H50.7031ZM78.5117 25.5V37.5H90.5117V25.5H78.5117ZM74.832 25.5H62.832V37.5H74.832V25.5ZM74.832 8.4375V-3.5625H62.832V8.4375H74.832ZM78.5117 8.4375H90.5117V-3.5625H78.5117V8.4375ZM78.5117 13.5H74.832V37.5H78.5117V13.5ZM86.832 25.5V8.4375H62.832V25.5H86.832ZM74.832 20.4375H78.5117V-3.5625H74.832V20.4375ZM66.5117 8.4375V25.5H90.5117V8.4375H66.5117ZM84.1953 25.5V37.5H92.8816L95.5949 29.2483L84.1953 25.5ZM80.2695 25.5L69.0209 21.3204L63.0091 37.5H80.2695V25.5ZM86.6094 8.4375V-3.5625H78.2666L75.3608 4.2579L86.6094 8.4375ZM89.0938 8.4375L101.023 9.73421L102.469 -3.5625H89.0938V8.4375ZM88.7422 11.6719L100.142 15.4202L100.536 14.2223L100.672 12.9686L88.7422 11.6719ZM87.9102 11.6719L75.995 13.0965L76.1376 14.2887L76.5135 15.4289L87.9102 11.6719ZM87.5234 8.4375V-3.5625H74.0032L75.6083 9.86214L87.5234 8.4375ZM90.0195 8.4375L101.261 4.23756L98.3462 -3.5625H90.0195V8.4375ZM96.3945 25.5V37.5H113.688L107.636 21.3001L96.3945 25.5ZM92.4688 25.5L81.0721 29.257L83.7894 37.5H92.4688V25.5ZM92.3516 22.1016V34.1016H104.352V22.1016H92.3516ZM83.3047 22.1016H71.3047V34.1016H83.3047V22.1016ZM83.3047 19.125V7.125H71.3047V19.125H83.3047ZM92.3516 19.125H104.352V7.125H92.3516V19.125ZM84.1953 13.5H80.2695V37.5H84.1953V13.5ZM91.5181 29.6796L97.858 12.6171L75.3608 4.2579L69.0209 21.3204L91.5181 29.6796ZM86.6094 20.4375H89.0938V-3.5625H86.6094V20.4375ZM77.164 7.14079L76.8125 10.3752L100.672 12.9686L101.023 9.73421L77.164 7.14079ZM77.3426 7.92354L72.7957 21.7517L95.5949 29.2483L100.142 15.4202L77.3426 7.92354ZM99.8253 10.2472L99.4386 7.01286L75.6083 9.86214L75.995 13.0965L99.8253 10.2472ZM87.5234 20.4375H90.0195V-3.5625H87.5234V20.4375ZM78.7785 12.6374L85.1535 29.6999L107.636 21.3001L101.261 4.23756L78.7785 12.6374ZM96.3945 13.5H92.4688V37.5H96.3945V13.5ZM103.865 21.743L99.3068 7.91483L76.5135 15.4289L81.0721 29.257L103.865 21.743ZM92.3516 10.1016H83.3047V34.1016H92.3516V10.1016ZM95.3047 22.1016V19.125H71.3047V22.1016H95.3047ZM83.3047 31.125H92.3516V7.125H83.3047V31.125ZM80.3516 19.125V22.1016H104.352V19.125H80.3516Z" fill="white"/>
</g>
<defs>
<filter id="filter0_d_277_479" x="0.464844" y="-11.5625" width="119.93" height="65.0625" filterUnits="userSpaceOnUse" color-interpolation-filters="sRGB">
<feFlood flood-opacity="0" result="BackgroundImageFix"/>
<feColorMatrix in="SourceAlpha" type="matrix" values="0 0 0 0 0 0 0 0 0 0 0 0 0 0 0 0 0 0 127 0" result="hardAlpha"/>
<feOffset dy="4"/>
<feGaussianBlur stdDeviation="12"/>
<feComposite in2="hardAlpha" operator="out"/>
<feColorMatrix type="matrix" values="0 0 0 0 0.117647 0 0 0 0 0.117647 0 0 0 0 0.117647 0 0 0 0.24 0"/>
<feBlend mode="normal" in2="BackgroundImageFix" result="effect1_dropShadow_277_479"/>
<feBlend mode="normal" in="SourceGraphic" in2="effect1_dropShadow_277_479" result="shape"/>
</filter>
</defs>
</svg>
